<mxfile host="app.diagrams.net" modified="2023-04-25T17:12:47.877Z" agent="Mozilla/5.0 (Windows NT 10.0; Win64; x64) AppleWebKit/537.36 (KHTML, like Gecko) Chrome/112.0.0.0 Safari/537.36 Edg/112.0.1722.58" etag="DXrkRg2pf-JeoR3BXYsz" version="21.2.1" type="github">
  <diagram id="C5RBs43oDa-KdzZeNtuy" name="Page-1">
    <mxGraphModel dx="1050" dy="549" grid="1" gridSize="10" guides="1" tooltips="1" connect="1" arrows="1" fold="1" page="1" pageScale="1" pageWidth="827" pageHeight="1169" math="0" shadow="0">
      <root>
        <mxCell id="WIyWlLk6GJQsqaUBKTNV-0" />
        <mxCell id="WIyWlLk6GJQsqaUBKTNV-1" parent="WIyWlLk6GJQsqaUBKTNV-0" />
        <mxCell id="mG9oeGCSrf5hmKsk_8Go-1" value="" style="edgeStyle=orthogonalEdgeStyle;rounded=0;orthogonalLoop=1;jettySize=auto;html=1;" edge="1" parent="WIyWlLk6GJQsqaUBKTNV-1" source="WIyWlLk6GJQsqaUBKTNV-3" target="mG9oeGCSrf5hmKsk_8Go-0">
          <mxGeometry relative="1" as="geometry" />
        </mxCell>
        <mxCell id="WIyWlLk6GJQsqaUBKTNV-3" value="进入页面" style="rounded=1;whiteSpace=wrap;html=1;fontSize=12;glass=0;strokeWidth=1;shadow=0;" parent="WIyWlLk6GJQsqaUBKTNV-1" vertex="1">
          <mxGeometry x="160" y="80" width="120" height="40" as="geometry" />
        </mxCell>
        <mxCell id="mG9oeGCSrf5hmKsk_8Go-3" value="" style="edgeStyle=orthogonalEdgeStyle;rounded=0;orthogonalLoop=1;jettySize=auto;html=1;" edge="1" parent="WIyWlLk6GJQsqaUBKTNV-1" source="mG9oeGCSrf5hmKsk_8Go-0" target="mG9oeGCSrf5hmKsk_8Go-2">
          <mxGeometry relative="1" as="geometry" />
        </mxCell>
        <mxCell id="mG9oeGCSrf5hmKsk_8Go-0" value="查询数据请求" style="rounded=1;whiteSpace=wrap;html=1;fontSize=12;glass=0;strokeWidth=1;shadow=0;" vertex="1" parent="WIyWlLk6GJQsqaUBKTNV-1">
          <mxGeometry x="360" y="80" width="120" height="40" as="geometry" />
        </mxCell>
        <mxCell id="mG9oeGCSrf5hmKsk_8Go-5" value="" style="edgeStyle=orthogonalEdgeStyle;rounded=0;orthogonalLoop=1;jettySize=auto;html=1;" edge="1" parent="WIyWlLk6GJQsqaUBKTNV-1" source="mG9oeGCSrf5hmKsk_8Go-2" target="mG9oeGCSrf5hmKsk_8Go-4">
          <mxGeometry relative="1" as="geometry" />
        </mxCell>
        <mxCell id="mG9oeGCSrf5hmKsk_8Go-2" value="......." style="rounded=1;whiteSpace=wrap;html=1;fontSize=12;glass=0;strokeWidth=1;shadow=0;" vertex="1" parent="WIyWlLk6GJQsqaUBKTNV-1">
          <mxGeometry x="360" y="150" width="120" height="40" as="geometry" />
        </mxCell>
        <mxCell id="mG9oeGCSrf5hmKsk_8Go-7" value="" style="edgeStyle=orthogonalEdgeStyle;rounded=0;orthogonalLoop=1;jettySize=auto;html=1;" edge="1" parent="WIyWlLk6GJQsqaUBKTNV-1" source="mG9oeGCSrf5hmKsk_8Go-4" target="mG9oeGCSrf5hmKsk_8Go-6">
          <mxGeometry relative="1" as="geometry" />
        </mxCell>
        <mxCell id="mG9oeGCSrf5hmKsk_8Go-9" value="" style="edgeStyle=orthogonalEdgeStyle;rounded=0;orthogonalLoop=1;jettySize=auto;html=1;exitX=0.5;exitY=1;exitDx=0;exitDy=0;" edge="1" parent="WIyWlLk6GJQsqaUBKTNV-1" source="mG9oeGCSrf5hmKsk_8Go-6" target="mG9oeGCSrf5hmKsk_8Go-8">
          <mxGeometry relative="1" as="geometry">
            <mxPoint x="560" y="310" as="sourcePoint" />
            <Array as="points">
              <mxPoint x="420" y="260" />
              <mxPoint x="420" y="260" />
            </Array>
          </mxGeometry>
        </mxCell>
        <mxCell id="mG9oeGCSrf5hmKsk_8Go-4" value="接口收到请求" style="rounded=1;whiteSpace=wrap;html=1;fontSize=12;glass=0;strokeWidth=1;shadow=0;" vertex="1" parent="WIyWlLk6GJQsqaUBKTNV-1">
          <mxGeometry x="360" y="230" width="120" height="40" as="geometry" />
        </mxCell>
        <mxCell id="mG9oeGCSrf5hmKsk_8Go-6" value="根据培养方案ID查询&lt;br&gt;纵坐标数据与&lt;br&gt;横坐标数据" style="rounded=1;whiteSpace=wrap;html=1;fontSize=12;glass=0;strokeWidth=1;shadow=0;arcSize=22;" vertex="1" parent="WIyWlLk6GJQsqaUBKTNV-1">
          <mxGeometry x="360" y="300" width="120" height="70" as="geometry" />
        </mxCell>
        <mxCell id="mG9oeGCSrf5hmKsk_8Go-11" value="" style="edgeStyle=orthogonalEdgeStyle;rounded=0;orthogonalLoop=1;jettySize=auto;html=1;" edge="1" parent="WIyWlLk6GJQsqaUBKTNV-1" source="mG9oeGCSrf5hmKsk_8Go-8" target="mG9oeGCSrf5hmKsk_8Go-10">
          <mxGeometry relative="1" as="geometry" />
        </mxCell>
        <mxCell id="mG9oeGCSrf5hmKsk_8Go-8" value="查询连接表&lt;br&gt;（包含权重）&lt;br&gt;数据" style="rounded=1;whiteSpace=wrap;html=1;fontSize=12;glass=0;strokeWidth=1;shadow=0;" vertex="1" parent="WIyWlLk6GJQsqaUBKTNV-1">
          <mxGeometry x="545" y="370" width="120" height="50" as="geometry" />
        </mxCell>
        <mxCell id="mG9oeGCSrf5hmKsk_8Go-13" value="" style="edgeStyle=orthogonalEdgeStyle;rounded=0;orthogonalLoop=1;jettySize=auto;html=1;" edge="1" parent="WIyWlLk6GJQsqaUBKTNV-1" source="mG9oeGCSrf5hmKsk_8Go-10" target="mG9oeGCSrf5hmKsk_8Go-12">
          <mxGeometry relative="1" as="geometry" />
        </mxCell>
        <mxCell id="mG9oeGCSrf5hmKsk_8Go-10" value="构建以横纵坐标数据为键&lt;br&gt;权重为值的映射" style="rounded=1;whiteSpace=wrap;html=1;fontSize=12;glass=0;strokeWidth=1;shadow=0;" vertex="1" parent="WIyWlLk6GJQsqaUBKTNV-1">
          <mxGeometry x="530" y="270" width="150" height="55" as="geometry" />
        </mxCell>
        <mxCell id="mG9oeGCSrf5hmKsk_8Go-15" value="" style="edgeStyle=orthogonalEdgeStyle;rounded=0;orthogonalLoop=1;jettySize=auto;html=1;" edge="1" parent="WIyWlLk6GJQsqaUBKTNV-1" source="mG9oeGCSrf5hmKsk_8Go-12" target="mG9oeGCSrf5hmKsk_8Go-14">
          <mxGeometry relative="1" as="geometry" />
        </mxCell>
        <mxCell id="mG9oeGCSrf5hmKsk_8Go-12" value="重构数据并返回JSON数组" style="rounded=1;whiteSpace=wrap;html=1;fontSize=12;glass=0;strokeWidth=1;shadow=0;" vertex="1" parent="WIyWlLk6GJQsqaUBKTNV-1">
          <mxGeometry x="530" y="175" width="150" height="55" as="geometry" />
        </mxCell>
        <mxCell id="mG9oeGCSrf5hmKsk_8Go-17" value="" style="edgeStyle=orthogonalEdgeStyle;rounded=0;orthogonalLoop=1;jettySize=auto;html=1;" edge="1" parent="WIyWlLk6GJQsqaUBKTNV-1" source="mG9oeGCSrf5hmKsk_8Go-14">
          <mxGeometry relative="1" as="geometry">
            <mxPoint x="760" y="100" as="targetPoint" />
          </mxGeometry>
        </mxCell>
        <mxCell id="mG9oeGCSrf5hmKsk_8Go-14" value="页面解析数据并渲染" style="rounded=1;whiteSpace=wrap;html=1;fontSize=12;glass=0;strokeWidth=1;shadow=0;" vertex="1" parent="WIyWlLk6GJQsqaUBKTNV-1">
          <mxGeometry x="530" y="80" width="150" height="40" as="geometry" />
        </mxCell>
        <mxCell id="mG9oeGCSrf5hmKsk_8Go-18" value="点击单元格" style="rhombus;whiteSpace=wrap;html=1;shadow=0;fontFamily=Helvetica;fontSize=12;align=center;strokeWidth=1;spacing=6;spacingTop=-4;" vertex="1" parent="WIyWlLk6GJQsqaUBKTNV-1">
          <mxGeometry x="760" y="60" width="100" height="80" as="geometry" />
        </mxCell>
        <mxCell id="mG9oeGCSrf5hmKsk_8Go-19" value="Yes" style="rounded=0;html=1;jettySize=auto;orthogonalLoop=1;fontSize=11;endArrow=block;endFill=0;endSize=8;strokeWidth=1;shadow=0;labelBackgroundColor=none;edgeStyle=orthogonalEdgeStyle;exitX=0.5;exitY=1;exitDx=0;exitDy=0;entryX=0.5;entryY=0;entryDx=0;entryDy=0;" edge="1" parent="WIyWlLk6GJQsqaUBKTNV-1" source="mG9oeGCSrf5hmKsk_8Go-18" target="mG9oeGCSrf5hmKsk_8Go-20">
          <mxGeometry y="20" relative="1" as="geometry">
            <mxPoint as="offset" />
            <mxPoint x="120" y="470" as="sourcePoint" />
            <mxPoint x="810" y="220" as="targetPoint" />
          </mxGeometry>
        </mxCell>
        <mxCell id="mG9oeGCSrf5hmKsk_8Go-22" value="" style="edgeStyle=orthogonalEdgeStyle;rounded=0;orthogonalLoop=1;jettySize=auto;html=1;" edge="1" parent="WIyWlLk6GJQsqaUBKTNV-1" source="mG9oeGCSrf5hmKsk_8Go-20" target="mG9oeGCSrf5hmKsk_8Go-21">
          <mxGeometry relative="1" as="geometry" />
        </mxCell>
        <mxCell id="mG9oeGCSrf5hmKsk_8Go-20" value="修改权重" style="rounded=1;whiteSpace=wrap;html=1;fontSize=12;glass=0;strokeWidth=1;shadow=0;" vertex="1" parent="WIyWlLk6GJQsqaUBKTNV-1">
          <mxGeometry x="735" y="190" width="150" height="40" as="geometry" />
        </mxCell>
        <mxCell id="mG9oeGCSrf5hmKsk_8Go-21" value="底部统计栏更新" style="rounded=1;whiteSpace=wrap;html=1;fontSize=12;glass=0;strokeWidth=1;shadow=0;" vertex="1" parent="WIyWlLk6GJQsqaUBKTNV-1">
          <mxGeometry x="735" y="310" width="150" height="40" as="geometry" />
        </mxCell>
      </root>
    </mxGraphModel>
  </diagram>
</mxfile>
